<svg xmlns="http://www.w3.org/2000/svg" width="1200" height="630" viewBox="0 0 1200 630">
  <defs>
    <filter id="glow-green">
      <feGaussianBlur stdDeviation="4" result="blur"/>
      <feMerge><feMergeNode in="blur"/><feMergeNode in="SourceGraphic"/></feMerge>
    </filter>
    <filter id="glow-pink">
      <feGaussianBlur stdDeviation="6" result="blur"/>
      <feMerge><feMergeNode in="blur"/><feMergeNode in="SourceGraphic"/></feMerge>
    </filter>
  </defs>

  <rect width="1200" height="630" fill="#0a0510"/>

  <g fill="#1a0a2e">
    <rect x="0" y="50" width="1200" height="1"/>
    <rect x="0" y="100" width="1200" height="1"/>
    <rect x="0" y="150" width="1200" height="1"/>
    <rect x="0" y="200" width="1200" height="1"/>
    <rect x="0" y="250" width="1200" height="1"/>
    <rect x="0" y="300" width="1200" height="1"/>
    <rect x="0" y="350" width="1200" height="1"/>
    <rect x="0" y="400" width="1200" height="1"/>
    <rect x="0" y="450" width="1200" height="1"/>
    <rect x="0" y="500" width="1200" height="1"/>
    <rect x="0" y="550" width="1200" height="1"/>
    <rect x="0" y="600" width="1200" height="1"/>
  </g>

  <g font-family="monospace" font-size="14" fill="#0f0" opacity="0.12">
    <text x="20" y="60">01001110</text>
    <text x="20" y="120">10110100</text>
    <text x="20" y="180">01110010</text>
    <text x="20" y="240">11001010</text>
    <text x="20" y="300">SIGNAL</text>
    <text x="20" y="360">01001110</text>
    <text x="20" y="420">NOISE</text>
    <text x="20" y="480">10110100</text>
    <text x="20" y="540">01110010</text>
    <text x="20" y="600">11001010</text>
    <text x="1100" y="60">01001110</text>
    <text x="1100" y="120">10110100</text>
    <text x="1100" y="180">01110010</text>
    <text x="1100" y="240">SIGNAL</text>
    <text x="1100" y="300">11001010</text>
    <text x="1100" y="360">NOISE</text>
    <text x="1100" y="420">01001110</text>
    <text x="1100" y="480">10110100</text>
    <text x="1100" y="540">01110010</text>
    <text x="1100" y="600">11001010</text>
  </g>

  <rect x="30" y="30" width="1140" height="570" fill="none" stroke="#ff00ff" stroke-width="2" opacity="0.7" filter="url(#glow-pink)"/>
  <rect x="36" y="36" width="1128" height="558" fill="none" stroke="#0f0" stroke-width="1" opacity="0.4"/>

  <g fill="none" stroke="#ff00ff" stroke-width="2" opacity="0.9">
    <line x1="30" y1="60" x2="80" y2="60"/>
    <line x1="60" y1="30" x2="60" y2="80"/>
    <line x1="1170" y1="60" x2="1120" y2="60"/>
    <line x1="1140" y1="30" x2="1140" y2="80"/>
    <line x1="30" y1="570" x2="80" y2="570"/>
    <line x1="60" y1="600" x2="60" y2="550"/>
    <line x1="1170" y1="570" x2="1120" y2="570"/>
    <line x1="1140" y1="600" x2="1140" y2="550"/>
  </g>

  <text x="600" y="100" font-family="monospace" font-size="16" fill="#0f0" text-anchor="middle" letter-spacing="8" filter="url(#glow-green)" opacity="0.9">// SYSTEM BROADCAST //</text>

  <text x="600" y="235" font-family="monospace" font-size="68" fill="#ff00ff" text-anchor="middle" letter-spacing="10" filter="url(#glow-pink)" font-weight="bold">寧靜音樂節</text>

  <text x="600" y="308" font-family="monospace" font-size="46" fill="#00ff00" text-anchor="middle" letter-spacing="5" filter="url(#glow-green)" font-weight="bold">UNSILENCE FESTIVAL</text>

  <line x1="180" y1="338" x2="1020" y2="338" stroke="#ff00ff" stroke-width="1" opacity="0.5"/>
  <rect x="592" y="330" width="16" height="16" fill="#ff00ff" opacity="0.7" transform="rotate(45 600 338)"/>

  <text x="600" y="392" font-family="monospace" font-size="30" fill="#ffffff" text-anchor="middle" letter-spacing="4">2026.05.30 &amp; 05.31</text>

  <text x="600" y="438" font-family="monospace" font-size="18" fill="#aaaaaa" text-anchor="middle" letter-spacing="2">嘉義文化創意產業園區 | G9 園區</text>

  <rect x="475" y="465" width="250" height="46" fill="none" stroke="#00ff00" stroke-width="2" rx="2"/>
  <text x="600" y="495" font-family="monospace" font-size="20" fill="#00ff00" text-anchor="middle" letter-spacing="4" filter="url(#glow-green)">FREE ENTRY</text>

  <text x="600" y="578" font-family="monospace" font-size="13" fill="#555555" text-anchor="middle" letter-spacing="2">主辦：中正大學熱音社</text>

  <text x="600" y="603" font-family="monospace" font-size="12" fill="#333333" text-anchor="middle" letter-spacing="3">NOISE_STAGE // SILENCE_STAGE</text>
</svg>
